<?xml version="1.0" standalone="no"?>
<!DOCTYPE svg PUBLIC "-//W3C//DTD SVG 20010904//EN"
 "http://www.w3.org/TR/2001/REC-SVG-20010904/DTD/svg10.dtd">
<svg version="1.0" xmlns="http://www.w3.org/2000/svg"
 width="512.000000pt" height="512.000000pt" viewBox="0 0 512.000000 512.000000"
 preserveAspectRatio="xMidYMid meet">
<metadata>
Created by potrace 1.11, written by Peter Selinger 2001-2013
</metadata>
<g transform="translate(0.000000,512.000000) scale(0.100000,-0.100000)"
fill="#000000" stroke="none">
<path d="M2705 5073 c-134 -26 -284 -126 -361 -243 -28 -43 -38 -48 -51 -26
-12 20 -110 87 -162 112 -313 145 -670 -47 -766 -413 -21 -80 -27 -246 -10
-303 16 -56 38 -113 46 -120 3 -3 12 -16 19 -30 51 -98 203 -275 414 -485 150
-149 228 -221 381 -354 103 -90 108 -94 188 -160 70 -58 92 -91 56 -83 -11 2
-167 66 -324 132 -11 5 -50 20 -87 34 -38 14 -96 37 -130 50 -186 71 -528 176
-662 202 -112 22 -155 27 -244 30 -79 2 -115 -1 -155 -15 -262 -91 -449 -322
-461 -571 -8 -183 61 -329 214 -455 27 -22 152 -85 169 -85 15 0 15 0 -18 -66
-62 -125 -78 -233 -55 -356 65 -341 432 -533 809 -423 177 51 411 325 700 820
32 55 71 121 86 148 16 26 29 49 29 51 0 1 28 54 63 117 34 63 71 131 82 152
21 41 27 36 39 -34 3 -19 8 -45 11 -59 15 -75 38 -210 55 -325 27 -188 30
-212 36 -290 2 -38 7 -83 9 -100 9 -63 18 -296 18 -450 1 -490 -75 -926 -224
-1275 -24 -56 -26 -68 -15 -94 25 -62 98 -87 151 -52 15 10 38 43 52 74 24 55
111 304 118 340 2 9 10 44 18 77 28 108 62 294 73 395 2 25 6 59 9 75 29 214
27 718 -5 1025 -6 52 -12 113 -15 135 -3 36 -28 210 -41 290 -3 17 -13 73 -23
125 -11 52 -18 96 -17 97 1 1 26 -30 56 -70 67 -88 232 -300 240 -307 3 -3 25
-30 50 -60 162 -200 397 -441 514 -527 122 -90 195 -115 341 -115 106 0 136 5
233 38 144 48 272 154 340 282 89 168 74 376 -40 549 l-48 73 33 16 c39 20
112 77 150 119 39 41 97 131 97 149 0 8 4 17 9 20 27 17 38 221 17 317 -26
117 -147 284 -259 356 -23 15 -44 30 -47 34 -9 10 -135 60 -189 74 -66 17
-175 13 -261 -10 -85 -22 -205 -62 -256 -85 -22 -11 -63 -28 -91 -39 -56 -22
-365 -177 -478 -239 -76 -42 -332 -192 -432 -253 -53 -31 -64 -35 -74 -23 -9
12 -4 26 29 72 110 152 360 533 437 667 150 257 267 511 290 632 20 100 8 203
-35 313 -43 110 -133 228 -225 296 -22 16 -42 31 -45 34 -11 12 -117 53 -168
65 -50 12 -164 16 -207 8z"/>
</g>
</svg>
